<?xml version="1.0" standalone="no"?><!DOCTYPE svg PUBLIC "-//W3C//DTD SVG 1.1//EN" "http://www.w3.org/Graphics/SVG/1.1/DTD/svg11.dtd"><svg t="1600847624382" class="icon" viewBox="0 0 1024 1024" version="1.1" xmlns="http://www.w3.org/2000/svg" p-id="8254" xmlns:xlink="http://www.w3.org/1999/xlink" width="200" height="200"><defs><style type="text/css"></style></defs><path d="M509.606937 905.732791c102.572781 0 188.003284-26.881767 253.954809-80.588016 63.446662-51.203234 101.292169-122.052684 114.760771-209.931688H739.183917c-14.692853 57.324486-41.518258 98.899106-81.812266 125.780873-39.070681 26.825405-89.104179 39.013396-150.157777 39.013396-91.552679 0-159.897267-30.498157-206.258013-94.001181-42.742509-56.155673-63.446662-134.23975-63.446662-234.307668 0-102.572781 20.703229-181.93747 62.222412-236.868893 45.135572-58.605098 115.929584-89.047817 211.155014-89.047817 62.278773 0 113.536521 15.805304 152.606278 45.080134 41.463744 33.003943 70.794012 83.03744 87.879929 148.933527H890.510507C871.031528 217.278115 825.839595 137.913425 753.821332 80.589863 686.645557 26.881767 606.11298 0 512.110876 0c-145.259852 0-253.898447 46.416184-324.691536 136.744613C125.085129 214.829614 94.586049 319.850896 94.586049 451.586707c0 129.398186 31.723331 235.588281 96.450605 316.120859C264.279167 860.597219 370.469261 905.732791 509.606937 905.732791z" p-id="8255"></path></svg>