<?xml version="1.0" standalone="no"?><!DOCTYPE svg PUBLIC "-//W3C//DTD SVG 1.1//EN" "http://www.w3.org/Graphics/SVG/1.1/DTD/svg11.dtd"><svg t="1600433868204" class="icon" viewBox="0 0 1883 1024" version="1.1" xmlns="http://www.w3.org/2000/svg" p-id="42331" xmlns:xlink="http://www.w3.org/1999/xlink" width="367.7734375" height="200"><defs><style type="text/css"></style></defs><path d="M23.036109 962.789467a924.564214 61.20878 0 1 0 1849.128428 0 924.564214 61.20878 0 1 0-1849.128428 0Z" fill="#F2F2F2" p-id="42332"></path><path d="M912.165414 292.723165c-150.636487 0-258.792096 96.645442-258.792097 322.147968 0 255.570582 108.155609 323.220638 258.790344 323.220639s265.236879-74.093086 265.236879-323.220639c0-266.309548-114.598639-322.147969-265.235126-322.147968z m0.990291 560.536554c-104.334662 0-158.842761-61.210533-158.842761-238.223829 0-156.18913 56.739323-238.555095 161.073984-238.555095s161.073984 54.103219 161.073985 238.555095c0 172.55085-58.972299 238.223829-163.305208 238.223829z" fill="#2F2E41" p-id="42333"></path><path d="M563.170905 759.837544h-62.28145v-183.405496a36.730176 36.730176 0 0 0-36.730176-36.730176h-14.593216a36.730176 36.730176 0 0 0-36.730176 36.730176v183.405496h-175.675964a20.967889 20.967889 0 0 1-18.540361-30.763888l185.934684-351.912802a36.730176 36.730176 0 0 0-16.791138-50.373413l-10.977338-5.182818a36.730176 36.730176 0 0 0-48.077339 15.897246L101.942187 761.719974a49.805529 49.805529 0 0 0-5.883909 23.479549 49.805529 49.805529 0 0 0 49.80553 49.80553H412.83764v115.972778a44.026784 44.026784 0 0 0 44.026784 44.028536 44.026784 44.026784 0 0 0 44.026784-44.028536v-115.972778h62.281449a37.583754 37.583754 0 0 0 37.583755-37.583755 37.583754 37.583754 0 0 0-37.583755-37.583754zM1716.460913 759.837544h-62.28145v-183.405496a36.730176 36.730176 0 0 0-36.730176-36.730176h-14.594969a36.730176 36.730176 0 0 0-36.730176 36.730176v183.405496h-175.675964a20.967889 20.967889 0 0 1-18.538608-30.763888l185.932931-351.912802a36.730176 36.730176 0 0 0-16.791138-50.373413l-10.977338-5.182818a36.730176 36.730176 0 0 0-48.075586 15.897246L1255.22869 761.719974a49.805529 49.805529 0 0 0-5.882156 23.479549 49.805529 49.805529 0 0 0 49.805529 49.80553h266.972079v115.972778a44.026784 44.026784 0 0 0 44.028537 44.028536 44.026784 44.026784 0 0 0 44.025031-44.028536v-115.972778h62.283203a37.583754 37.583754 0 0 0 37.583754-37.583755 37.583754 37.583754 0 0 0-37.583754-37.583754z" fill="#009688" p-id="42334"></path><path d="M825.782196 31.987293m-22.611949 0a22.611949 22.611949 0 1 0 45.223898 0 22.611949 22.611949 0 1 0-45.223898 0Z" fill="#2F2E41" p-id="42335"></path><path d="M817.509318 82.17667a82.17667 63.424229 90 1 0 126.848458 0 82.17667 63.424229 90 1 0-126.848458 0Z" fill="#2F2E41" p-id="42336"></path><path d="M880.933547 139.534705c-31.771707 0-58.085418-30.269619-62.703857-69.767352a106.874365 106.874365 0 0 0-0.718619 12.409317c0 45.383396 28.3942 82.17667 63.422476 82.176669s63.425981-36.791521 63.425981-82.176669a106.874365 106.874365 0 0 0-0.718618-12.409317c-4.618439 39.495981-30.933903 69.767353-62.707363 69.767352z" opacity=".1" p-id="42337"></path><path d="M1009.9957 322.833285c-1.36187 5.596462-7.235263 10.078188-13.739637 13.212067-13.673034 6.583248-30.541292 8.549809-46.903011 9.208835a79.181257 79.181257 0 0 1-12.521492-0.23136 35.995782 35.995782 0 0 1-21.470922-9.871367 2.944584 2.944584 0 0 1 0.075367-4.983006c8.71106-9.569897 23.246436-15.434526 37.888729-19.660354 11.101781-3.202235 30.462419-11.497898 42.573772-10.379658 11.727506 1.086692 15.816621 15.637843 14.097194 22.704843z" fill="#3F3D56" p-id="42338"></path><path d="M1009.9957 322.833285c-1.36187 5.596462-7.235263 10.078188-13.739637 13.212067-13.673034 6.583248-30.541292 8.549809-46.903011 9.208835a79.181257 79.181257 0 0 1-12.521492-0.23136 35.995782 35.995782 0 0 1-21.470922-9.871367 2.944584 2.944584 0 0 1 0.075367-4.983006c8.71106-9.569897 23.246436-15.434526 37.888729-19.660354 11.101781-3.202235 30.462419-11.497898 42.573772-10.379658 11.727506 1.086692 15.816621 15.637843 14.097194 22.704843z" opacity=".1" p-id="42339"></path><path d="M836.128552 280.999165a34.65144 34.65144 0 0 0-2.101522 26.42238 46.166865 46.166865 0 0 0 15.476592 21.903846c17.69204 14.183078 42.042695 16.133865 64.717742 15.937559a498.91413 498.91413 0 0 0 59.426255-4.07334 71.052103 71.052103 0 0 0 19.283518-4.476469c7.400019-3.202235 13.904394-9.075627 16.538745-16.69649s0.76419-16.954142-5.493051-22.038807c-5.498309-4.469457-13.080612-5.082912-20.152871-5.508825l-40.465239-2.432787c3.996221-4.045297 9.321009-6.33436 14.188336-9.275438 6.460557-3.901573 10.751236-10.455025 15.448547-16.36172a226.103712 226.103712 0 0 1 23.553164-24.217448c1.318052 7.554259 6.095989 13.758918 11.722248 18.971532s12.107848 9.410399 17.953196 14.372373c14.160292 12.021964 24.355913 28.33636 39.248847 39.436388a76.820332 76.820332 0 0 0 28.127785-14.041107l-5.78751-10.484821a6.90575 6.90575 0 0 0-2.180394-2.721987c-1.638801-1.007819-3.750839-0.487258-5.652549-0.772953-5.084665-0.762437-7.305372-6.632324-9.299976-11.369949-5.477276-13.00875-15.96385-23.10096-24.920292-34.009941a171.783155 171.783155 0 0 1-17.520273-25.80542c-3.009435-5.436963-5.762971-11.096523-9.846828-15.779814s-9.80301-8.365773-16.016432-8.378041c-5.489545-0.012269-10.553178 2.774569-15.273275 5.577181a403.963576 403.963576 0 0 0-41.416971 28.218927c-6.912761 5.365102-13.783456 11.035178-21.891578 14.325049-3.412562 1.384655-7.010913 2.331129-10.286762 4.017254-5.73668 2.953347-10.090457 7.948623-14.777253 12.383025-16.717523 15.814868-39.60465 26.061318-62.602199 26.879843z" fill="#3F3D56" p-id="42340"></path><path d="M920.743266 168.433691a41.669364 41.669364 0 0 1-3.039231 14.079667 17.606156 17.606156 0 0 1-10.109737 9.767955 21.690014 21.690014 0 0 1-9.855591 0.320749 19.07319 19.07319 0 0 1-8.029249-2.736009c-3.794657-2.609813-5.687604-7.263306-6.376426-11.818647-0.688822-4.550083-0.380342-9.200071-0.82203-13.783456a75.269167 75.269167 0 0 0-2.106779-10.963316c-0.297964-1.197113-0.601186-2.388969-0.89915-3.579071-0.290953-1.191855-0.5784-2.383711-0.843062-3.575566a77.623081 77.623081 0 0 1-0.662531-3.374002 50.331348 50.331348 0 0 1-0.408386-2.879733 32.290515 32.290515 0 0 0-1.416205-8.432376 25.602103 25.602103 0 0 0-2.956852-5.002287c-0.50128-0.716866-0.986786-1.433732-1.433732-2.178641a10.32357 10.32357 0 0 1-1.703652-6.569226 5.759465 5.759465 0 0 1 0.259404-1.051637c0.043818-0.133207 0.092895-0.266415 0.148982-0.392611a3.158417 3.158417 0 0 0 2.155855-2.013885 6.017116 6.017116 0 0 0-0.259403-3.114599 19.83738 19.83738 0 0 0-1.68262-4.010242c-0.46272-0.837804-2.033165-2.348656-2.045434-3.309151-0.022785-1.929754 3.750839-3.486177 5.277466-4.246861a29.438826 29.438826 0 0 1 15.068205-3.055006c3.337195 0.226102 6.954826 1.251448 8.796944 4.048803 1.654576 2.520423 1.433732 5.784004 2.138329 8.712813a2.576511 2.576511 0 0 0 0.525818 1.163811 2.350409 2.350409 0 0 0 1.297019 0.595928 7.974914 7.974914 0 0 0 2.480111 0.099905h0.005258a5.137247 5.137247 0 0 0 0.650262-0.094647 8.688275 8.688275 0 0 0 3.563297-1.538895q1.027099-0.273426 2.068219-0.446946a0.439935 0.439935 0 0 0 0.082379-0.017527c2.764053 8.721576 3.121609 18.070629 5.384381 26.948198 1.118241 4.416875 2.72374 8.781169 2.949842 13.325994 0.017527 0.198058 0.022785 0.403128 0.028044 0.606444 0.033302 1.461775-0.082378 2.934067-0.022786 4.388832a12.235797 12.235797 0 0 0 0.220844 1.952539 27.361843 27.361843 0 0 0 0.920182 3.056758l0.017528 0.049077c0.105164 0.318997 0.203316 0.645004 0.287447 0.971011 0.059593 0.236618 0.11568 0.467978 0.157746 0.704597l0.007011 0.017527a26.182256 26.182256 0 0 1 0.182283 7.373729z" fill="#FBBEBE" p-id="42341"></path><path d="M882.037766 78.867518m-32.539402 0a32.539402 32.539402 0 1 0 65.078804 0 32.539402 32.539402 0 1 0-65.078804 0Z" fill="#FBBEBE" p-id="42342"></path><path d="M1088.624848 256.157746a53.361815 53.361815 0 0 0-9.177286-24.718729q1.26547 7.527968 2.537951 15.050679a5.633269 5.633269 0 0 1-5.901437-1.814074 18.117953 18.117953 0 0 1-3.095318-5.741938 118.249572 118.249572 0 0 0-14.3899-25.826453c-20.713744-1.726437-41.190869-10.313054-59.408728-20.324638-18.221364-10.004574-35.273658-22.000246-53.253146-32.42898a76.371633 76.371633 0 0 0-9.718879-4.963727c-5.626258-2.255761-11.939586-3.424831-17.273138-6.076709-0.359309-0.177026-0.718619-0.364568-1.069164-0.557368a22.045817 22.045817 0 0 1-3.409057-2.289063 18.130222 18.130222 0 0 1-1.63179-1.500335 35.669775 35.669775 0 0 1-6.239713-10.433992c-2.860453-6.332608-3.882293-13.969245-6.739241-20.301853a19.635816 19.635816 0 0 1 4.385327-3.093566h0.005258c0.23136-0.122691 0.464473-0.238371 0.701091-0.348793a20.927577 20.927577 0 0 1 3.512468-1.284749q1.027099-0.273426 2.068219-0.446946a0.439935 0.439935 0 0 0 0.082379-0.017527 20.272056 20.272056 0 0 1 9.624231 0.762436c4.534308 1.533637 8.355256 4.593901 12.16744 7.489409a199.846089 199.846089 0 0 1 17.786688 14.109463c3.142642 3.009435 6.011858 6.318586 9.391119 9.054595a73.866984 73.866984 0 0 0 8.863547 5.873393q27.440715 16.347697 54.886689 32.688384c6.194142 3.689493 12.39179 7.378986 18.449219 11.284065 9.198318 5.934738 18.067124 12.365499 26.930671 18.789248q7.834696 5.677087 15.662381 11.35768a17.050542 17.050542 0 0 1 4.439661 4.101384 14.849115 14.849115 0 0 1 1.968314 6.018869 55.012885 55.012885 0 0 1-2.155856 25.589835z" fill="#FBBEBE" p-id="42343"></path><path d="M928.811075 192.905284c-2.194416 9.843323-12.144655 15.795588-17.345 24.441797-6.464062 10.733709-3.827959 23.207876-1.402183 35.501513q-6.649851 5.733174-13.306713 11.466349c-2.448562 2.101521-4.897123 4.213559-7.533227 6.073204a100.518972 100.518972 0 0 1-12.023716 6.90575q-5.889167 3.026962-11.780088 6.059182a56.311657 56.311657 0 0 1-11.532953 4.886607c-7.736543 1.985841-15.955086 0.595928-23.609251-1.703652a10.67061 10.67061 0 0 1-2.581769-1.05339 4.196032 4.196032 0 0 1-1.225157-1.109477 6.853168 6.853168 0 0 1-0.776458-4.450178c0.776459-12.882554 3.926112-25.49694 7.063495-38.016678a149.437621 149.437621 0 0 1 6.746252-22.044064 149.116871 149.116871 0 0 1 9.491024-17.790193 119.830533 119.830533 0 0 1 13.899136-20.180915 32.388668 32.388668 0 0 0 6.441276-8.30618c1.957798-4.467705 1.202372-9.59093 1.600241-14.45475a30.055786 30.055786 0 0 1 2.862206-10.52864v-0.005258a29.959386 29.959386 0 0 1 3.055005-5.053116l1.605499 3.733312q0.529324 1.22691 1.046379 2.445056 0.678306 1.570445 1.346096 3.132125l3.850744 8.9617a37.841405 37.841405 0 0 0 5.845349 10.418218 11.392734 11.392734 0 0 0 19.495598-1.495077 37.264758 37.264758 0 0 0 3.982199-10.539156 33.678676 33.678676 0 0 0 0.441687-13.732627c-1.328568-8.781169-5.063632-17.748127-7.776856-25.905325a26.194525 26.194525 0 0 1-1.892946-8.535787 5.873393 5.873393 0 0 1 0.099905-0.981528l0.050829-0.255899a20.927577 20.927577 0 0 1 3.512468-1.284749q1.025346-0.271673 2.068219-0.446946 3.582577 19.392187 7.17567 38.784373c0.054335 0.303222 0.11568 0.606444 0.170015 0.914924 0.343535 1.852634 0.690575 3.705268 1.076175 5.554397 0.34704 1.675608 0.722124 3.347711 1.141026 5.007544l0.017528 0.049077c0.143724 0.562626 0.292706 1.119993 0.446945 1.677361l0.005259 0.015774c0.42416 1.521368 0.89915 3.03222 1.433731 4.52204 3.242547 8.973969 8.896849 18.007531 6.818114 27.323282z" fill="#009688" p-id="42344"></path><path d="M1060.868641 331.253392a11.538211 11.538211 0 0 0 1.069165 5.508826c2.03667 3.721042 6.923277 4.56761 11.15261 4.916403a330.173712 330.173712 0 0 0 74.079065-2.257514 8.563831 8.563831 0 0 0 3.771871-1.170823c3.487929-2.445056 1.337332-8.404333-2.471347-10.311301s-8.327212-1.447754-12.505717-2.275041a39.401334 39.401334 0 0 1-11.70472-5.075902q-12.710786-7.303619-25.051746-15.227704c-4.897123-3.146147-10.679374-6.502622-16.195211-4.637719-14.942009 5.054869-22.242123 14.410933-22.14397 30.530775z" fill="#3F3D56" p-id="42345"></path><path d="M878.788207 145.458927v0.003506a13.583645 13.583645 0 0 1-0.126196 0.683564c-0.061345 0.376837-0.133207 0.757179-0.203317 1.132262a136.201016 136.201016 0 0 1-2.488874 10.449767c-2.64662 9.569897-6.192389 18.983801-9.710115 28.260992L837.926851 260.613181c-2.383711 6.264251-4.76041 12.535513-7.466623 18.673568-0.906161 2.047187-1.836859 4.108395-2.764053 6.194142-3.319668 7.461365-6.50788 15.166359-7.566528 23.107971a48.112394 48.112394 0 0 0-0.336524 15.844664c1.058648 5.205603 4.218817 10.292021 9.16677 12.216517 2.41526 0.942968 5.87164 2.206685 5.210861 4.714839-0.357557 1.379397-1.924496 2.052445-3.330184 2.283806a12.81595 12.81595 0 0 1-10.456777-3.011188c-2.643114-2.343398-4.672774-5.989073-8.185242-6.379931-2.432787-0.264662-4.671021 1.191855-6.898739 2.21019-9.089649 4.153966-19.679634 1.247943-29.224992-1.703652 0.748415-3.866519 4.632461-6.414986 8.48671-7.186186 3.856002-0.778211 7.843459-0.226102 11.77483-0.331266a6.152077 6.152077 0 0 0 3.579071-0.920182 6.493859 6.493859 0 0 0 1.931507-3.298635 138.402443 138.402443 0 0 0 5.629763-23.041367c1.268975-8.179983 1.798299-16.486163 3.607115-24.566241 1.407441-6.302811 3.579071-12.409317 5.443974-18.596448a393.806515 393.806515 0 0 0 8.868806-38.694984 136.747867 136.747867 0 0 0 2.497638-16.417806c0.315491-4.578126 0.166509-9.177286 0.606444-13.739638a106.720125 106.720125 0 0 1 3.701762-17.520273l5.056621-18.736666c2.499391-9.236879 5.179312-18.833066 11.510168-26.013995a24.471593 24.471593 0 0 1 17.578112-8.395569 17.320462 17.320462 0 0 1 3.733312 0.403128c0.203316 0.050829 0.408386 0.099906 0.611702 0.155993a15.133057 15.133057 0 0 1 3.810432 1.577455c1.952539-1.242684 2.944584-0.806255 4.241602 1.107725a12.221775 12.221775 0 0 1 1.544154 6.651604 91.885032 91.885032 0 0 1-1.500336 18.254666z" fill="#FBBEBE" p-id="42346"></path><path d="M880.933547 152.77131l-0.082378 0.082378-0.446946 0.446946-4.434403 4.427392-2.173383-9.126457-7.449096-31.293212a17.320462 17.320462 0 0 1 3.733312 0.403127 5.759465 5.759465 0 0 1 0.259404-1.055142l0.352298 1.209383 2.525682 8.591874 4.781443 16.314396 0.788727 2.68518v0.005258z" fill="#009688" p-id="42347"></path><path d="M909.071848 52.937655a22.052828 22.052828 0 0 1-6.485095 15.592271 21.583097 21.583097 0 0 1-2.38371 2.061209 21.958181 21.958181 0 0 1-13.208561 4.423886h-26.459188a22.06685 22.06685 0 0 1 0-44.1337h26.459188a22.136959 22.136959 0 0 1 22.077366 22.056334z" fill="#2F2E41" p-id="42348"></path><path d="M933.879965 31.987293m-22.611948 0a22.611949 22.611949 0 1 0 45.223897 0 22.611949 22.611949 0 1 0-45.223897 0Z" fill="#2F2E41" p-id="42349"></path><path d="M933.327856 9.377097c-0.276931 0-0.552109 0.010516-0.827288 0.01928a22.60669 22.60669 0 0 1 0 45.183584c0.275178 0.008764 0.550357 0.021033 0.827288 0.021033a22.611949 22.611949 0 1 0 0-45.22565zM825.782196 9.377097c0.276931 0 0.552109 0.010516 0.827288 0.01928a22.60669 22.60669 0 0 0 0 45.183584c-0.275178 0.008764-0.550357 0.021033-0.827288 0.021033a22.611949 22.611949 0 0 1 0-45.22565zM900.20129 70.591135a21.958181 21.958181 0 0 1-13.206808 4.423886h-26.459188a21.958181 21.958181 0 0 1-13.208561-4.423886z" opacity=".1" p-id="42350"></path><path d="M1071.067768 234.437936s5.699873 16.42657 10.917745 12.05176l-4.159225-21.470923z" fill="#FBBEBE" p-id="42351"></path><path d="M1764.759096 735.357187a36.479536 36.479536 0 1 0 4.85681-69.961906l0.913171 18.776979-8.882827-16.090046a36.34107 36.34107 0 0 0-18.724397 20.545482 35.769681 35.769681 0 0 0-2.099769 9.867861 36.472525 36.472525 0 0 0 23.937012 36.859877z" fill="#57B894" p-id="42352"></path><path d="M1804.253324 626.754632a36.435717 36.435717 0 0 1 26.255871-23.130757l3.004176 17.848033 5.568418-18.745429a36.474277 36.474277 0 1 1-34.826712 24.029905z" fill="#57B894" p-id="42353"></path><path d="M1831.583617 819.582796a36.474277 36.474277 0 0 0 32.285257-64.88951l-4.27841 14.405675-3.035725-18.060113a0.634488 0.634488 0 0 0-0.092895-0.035055 36.47603 36.47603 0 1 0-24.876474 68.579003z" fill="#57B894" p-id="42354"></path><path d="M1793.609005 880.162346a36.458503 36.458503 0 1 0 7.02844-28.564214l16.253051 24.461077-22.207069-12.984211a36.134248 36.134248 0 0 0-1.074422 17.087348z" fill="#57B894" p-id="42355"></path><path d="M15.786824 824.218762a23.966808 23.966808 0 1 0 3.191719-45.965301l0.601186 12.335702-5.836586-10.572457a23.877419 23.877419 0 0 0-12.304153 13.499514 23.502335 23.502335 0 0 0-1.377645 6.485095 23.963302 23.963302 0 0 0 15.725479 24.217447z" fill="#57B894" p-id="42356"></path><path d="M41.735968 752.865191a23.938764 23.938764 0 0 1 17.250353-15.197908l1.973572 11.725753 3.659696-12.31467a23.965055 23.965055 0 1 1-22.883621 15.786825z" fill="#57B894" p-id="42357"></path><path d="M59.694423 879.557655a23.965055 23.965055 0 0 0 21.209766-42.635117l-2.811377 9.464733-1.992852-11.865971a0.417149 0.417149 0 0 0-0.061345-0.022786 23.965055 23.965055 0 1 0-16.344192 45.059141z" fill="#57B894" p-id="42358"></path><path d="M34.742582 919.358611a23.954539 23.954539 0 1 0 4.618439-18.768215l10.677621 16.072519-14.589711-8.530529a23.740706 23.740706 0 0 0-0.706349 11.226225z" fill="#57B894" p-id="42359"></path><path d="M813.171316 559.321913a38.560024 29.796382 90 1 0 59.592764 0 38.560024 29.796382 90 1 0-59.592764 0Z" fill="#2F2E41" p-id="42360"></path><path d="M975.29869 560.198277a38.560024 29.796382 90 1 0 59.592764 0 38.560024 29.796382 90 1 0-59.592764 0Z" fill="#2F2E41" p-id="42361"></path><path d="M982.309603 674.125621c0 17.42212-24.32787 31.549111-54.334579 31.549111s-54.334579-14.126991-54.33458-31.549111c0-15.090991 18.245902-27.710636 42.626354-30.795437a87.818702 87.818702 0 0 1 11.708226-0.753673 88.861576 88.861576 0 0 1 19.507866 2.103274c20.366704 4.539566 34.826713 16.019937 34.826713 29.445836z" fill="#2F2E41" p-id="42362"></path><path d="M948.1314 647.31063a8.65322 8.65322 0 0 1-2.313602 5.945255 7.605088 7.605088 0 0 1-5.573676 2.466088h-17.527283a8.174725 8.174725 0 0 1-7.887278-8.413096 8.597133 8.597133 0 0 1 1.437237-4.802475 82.413288 82.413288 0 0 1 11.708226-0.806255 83.543798 83.543798 0 0 1 19.507866 2.243492 8.881075 8.881075 0 0 1 0.64851 3.365238z" fill="#FFFFFF" p-id="42363"></path><path d="M849.978611 540.041901m-8.763642 0a8.763642 8.763642 0 1 0 17.527284 0 8.763642 8.763642 0 1 0-17.527284 0Z" fill="#FFFFFF" p-id="42364"></path><path d="M1012.982349 540.041901m-8.763641 0a8.763642 8.763642 0 1 0 17.527283 0 8.763642 8.763642 0 1 0-17.527283 0Z" fill="#FFFFFF" p-id="42365"></path><path d="M1021.745991 622.420134m-8.763642 0a8.763642 8.763642 0 1 0 17.527284 0 8.763642 8.763642 0 1 0-17.527284 0Z" fill="#009688" opacity=".3" p-id="42366"></path><path d="M807.91313 622.420134m-8.763641 0a8.763642 8.763642 0 1 0 17.527283 0 8.763642 8.763642 0 1 0-17.527283 0Z" fill="#009688" opacity=".3" p-id="42367"></path></svg>